<svg width="1296" height="358" viewBox="0 0 1296 358" fill="none" xmlns="http://www.w3.org/2000/svg">
<g clip-path="url(#clip0_310_4545)">
<rect width="1296" height="358" rx="32" fill="#ED9526"/>
<path d="M0 112.211L15.7734 126.799C146.991 248.155 349.769 247.188 479.823 124.585L495.667 109.649C617.616 -5.31342 807.998 -5.42775 930.084 109.388L948.297 126.516C1043.07 215.641 1186.2 229.179 1296 159.402V159.402" stroke="white" stroke-opacity="0.08" stroke-width="4"/>
<path d="M0 176.553L15.7734 191.141C146.991 312.497 349.769 311.53 479.823 188.927L495.667 173.991C617.616 59.0286 807.998 58.9143 930.084 173.73L948.297 190.858C1043.07 279.983 1186.2 293.521 1296 223.744V223.744" stroke="white" stroke-opacity="0.08" stroke-width="4"/>
<path d="M0 240.895L15.7734 255.483C146.991 376.839 349.769 375.872 479.823 253.269L495.667 238.333C617.616 123.371 807.998 123.256 930.084 238.072L948.297 255.2C1043.07 344.325 1186.2 357.863 1296 288.086V288.086" stroke="white" stroke-opacity="0.08" stroke-width="4"/>
<path d="M0 305.237L15.7734 319.825C146.991 441.181 349.769 440.214 479.823 317.611L495.667 302.675C617.616 187.713 807.998 187.598 930.084 302.414L948.297 319.542C1043.07 408.667 1186.2 422.205 1296 352.428V352.428" stroke="white" stroke-opacity="0.08" stroke-width="4"/>
<path d="M0 369.579L15.7734 384.167C146.991 505.523 349.769 504.556 479.823 381.953L495.667 367.017C617.616 252.055 807.998 251.94 930.084 366.756L948.297 383.884C1043.07 473.009 1186.2 486.547 1296 416.77V416.77" stroke="white" stroke-opacity="0.08" stroke-width="4"/>
<path d="M0 433.921L15.7734 448.509C146.991 569.865 349.769 568.898 479.823 446.295L495.667 431.359C617.616 316.397 807.998 316.282 930.084 431.098L948.297 448.225C1043.07 537.351 1186.2 550.889 1296 481.112V481.112" stroke="white" stroke-opacity="0.08" stroke-width="4"/>
</g>
<defs>
<clipPath id="clip0_310_4545">
<rect width="1296" height="358" fill="white"/>
</clipPath>
</defs>
</svg>
