<svg width="72" height="73" viewBox="0 0 72 73" fill="none" xmlns="http://www.w3.org/2000/svg">
<rect y="0.397217" width="72" height="72" rx="36" fill="#3865F3" fill-opacity="0.15"/>
<path d="M41 22.3972C42.6569 22.3972 44 23.8075 44 25.5472V47.2472C44 48.9869 42.6569 50.3972 41 50.3972H31C29.3431 50.3972 28 48.9869 28 47.2472V25.5472C28 23.8075 29.3431 22.3972 31 22.3972H41ZM41 24.4972H31C30.4477 24.4972 30 24.9673 30 25.5472V47.2472C30 47.8271 30.4477 48.2972 31 48.2972H41C41.5523 48.2972 42 47.8271 42 47.2472V25.5472C42 24.9673 41.5523 24.4972 41 24.4972ZM37.6652 44.0972C38.2174 44.0963 38.6658 44.5657 38.6667 45.1456C38.6675 45.7255 38.2205 46.1963 37.6682 46.1972L34.3348 46.2025C33.7826 46.2034 33.3342 45.734 33.3333 45.1541C33.3325 44.5742 33.7795 44.1034 34.3318 44.1025L37.6652 44.0972Z" fill="#FF4F60"/>
</svg>
