<svg width="72" height="73" viewBox="0 0 72 73" fill="none" xmlns="http://www.w3.org/2000/svg">
<rect y="0.397217" width="72" height="72" rx="36" fill="#3865F3" fill-opacity="0.15"/>
<path d="M35.9998 47.0639C36.7362 47.0639 37.3332 46.4669 37.3332 45.7305C37.3332 44.9942 36.7362 44.3972 35.9998 44.3972C35.2635 44.3972 34.6665 44.9942 34.6665 45.7305C34.6665 46.4669 35.2635 47.0639 35.9998 47.0639Z" fill="#FFC042"/>
<path d="M36.5866 35.0638L34.0533 32.5438L30.7733 29.2905L28.7066 27.2238L26.2799 24.7838C26.1556 24.6595 26.008 24.5609 25.8456 24.4936C25.6832 24.4264 25.5091 24.3917 25.3333 24.3917C25.1575 24.3917 24.9834 24.4264 24.8209 24.4936C24.6585 24.5609 24.5109 24.6595 24.3866 24.7838C24.1355 25.0349 23.9945 25.3754 23.9945 25.7305C23.9945 26.0856 24.1355 26.4261 24.3866 26.6772L26.2266 28.5038L28.1733 30.4505L31.1466 33.4372L33.2133 35.4905L36.8666 39.1438L40.5866 42.8772L45.7199 48.0105C45.8439 48.1355 45.9914 48.2347 46.1538 48.3024C46.3163 48.3701 46.4906 48.4049 46.6666 48.4049C46.8426 48.4049 47.0169 48.3701 47.1794 48.3024C47.3419 48.2347 47.4893 48.1355 47.6133 48.0105C47.7382 47.8866 47.8374 47.7391 47.9051 47.5766C47.9728 47.4141 48.0077 47.2399 48.0077 47.0638C48.0077 46.8878 47.9728 46.7136 47.9051 46.5511C47.8374 46.3886 47.7382 46.2411 47.6133 46.1172L36.5866 35.0638ZM48.9599 30.9705C45.4872 27.6027 40.8375 25.7228 35.9999 25.7305C33.9872 25.736 31.9884 26.0646 30.0799 26.7038L32.2399 28.8638C34.8557 28.2103 37.5949 28.2346 40.1986 28.9345C42.8023 29.6344 45.1845 30.9868 47.1199 32.8638C47.3671 33.1021 47.6966 33.2358 48.0399 33.2372C48.2195 33.2365 48.3972 33.1995 48.5621 33.1285C48.7271 33.0575 48.876 32.9538 48.9999 32.8238C49.235 32.5701 49.3622 32.2349 49.3547 31.8891C49.3472 31.5433 49.2057 31.2139 48.9599 30.9705ZM25.0933 29.2638C24.3698 29.7841 23.6837 30.3544 23.0399 30.9705C22.8149 31.2207 22.6928 31.5468 22.6982 31.8832C22.7035 32.2197 22.8359 32.5417 23.0687 32.7846C23.3015 33.0276 23.6176 33.1735 23.9535 33.1932C24.2895 33.2128 24.6204 33.1047 24.8799 32.8905C25.5449 32.2622 26.2582 31.687 27.0133 31.1705L25.0933 29.2638ZM42.6666 37.9172C42.7901 38.0432 42.9374 38.1434 43.0999 38.2121C43.2624 38.2807 43.4369 38.3164 43.6133 38.3172C43.8738 38.3162 44.1284 38.2389 44.3455 38.0948C44.5626 37.9507 44.7327 37.7462 44.8349 37.5065C44.937 37.2667 44.9666 37.0024 44.9201 36.746C44.8737 36.4896 44.7531 36.2524 44.5733 36.0638C43.4612 34.9115 42.1297 33.9935 40.6573 33.3637C39.1849 32.734 37.6013 32.4054 35.9999 32.3972H35.7866L38.9199 35.5305C40.3427 36.0129 41.628 36.8317 42.6666 37.9172ZM29.9066 34.0772C28.9749 34.6199 28.1224 35.2884 27.3733 36.0638C27.1275 36.3238 26.9951 36.6707 27.0051 37.0282C27.0151 37.3858 27.1667 37.7247 27.4266 37.9705C27.6865 38.2163 28.0334 38.3487 28.391 38.3387C28.7486 38.3287 29.0875 38.1771 29.3333 37.9172C30.11 37.1449 31.0116 36.5093 31.9999 36.0372L29.9066 34.0772ZM31.3733 40.9305C31.1187 41.1763 30.9721 41.5131 30.9659 41.8669C30.9628 42.0421 30.9942 42.2162 31.0584 42.3793C31.1226 42.5423 31.2182 42.6911 31.3399 42.8172C31.4616 42.9432 31.607 43.0441 31.7676 43.114C31.9283 43.1839 32.1012 43.2215 32.2764 43.2246C32.6302 43.2308 32.972 43.0963 33.2266 42.8505C33.913 42.2174 34.7958 41.839 35.7277 41.7783C36.6595 41.7176 37.5839 41.9784 38.3466 42.5172L34.9866 39.1572C33.6282 39.3619 32.3662 39.9812 31.3733 40.9305Z" fill="#FFC042"/>
</svg>
