<svg width="74" height="74" viewBox="0 0 74 74" fill="none" xmlns="http://www.w3.org/2000/svg">
<rect y="0.697876" width="72.3573" height="72.3582" rx="36.1787" transform="rotate(-0.552602 0 0.697876)" fill="#3865F3" fill-opacity="0.15"/>
<path d="M36.5191 41.8614C37.2555 41.8462 37.8533 41.2368 37.8542 40.5002C37.8551 39.7636 37.2589 39.1787 36.5224 39.1939C35.786 39.209 35.1882 39.8185 35.1873 40.5551C35.1863 41.2917 35.7826 41.8765 36.5191 41.8614Z" fill="#3865F3"/>
<path d="M43.1999 31.0541L41.8664 31.0816L41.8696 28.5608C41.8714 27.1459 41.3112 25.8004 40.3121 24.8205C39.3131 23.8406 37.9571 23.3065 36.5425 23.3356C35.1279 23.3647 33.7705 23.9547 32.7689 24.9758C31.7673 25.9969 31.2037 27.3655 31.2019 28.7804L31.1987 31.3012L29.8652 31.3286C28.8042 31.3505 27.7862 31.793 27.035 32.5588C26.2839 33.3246 25.8611 34.351 25.8597 35.4122L25.8462 46.0822C25.8449 47.1434 26.2651 48.1525 27.0144 48.8874C27.7636 49.6223 28.7806 50.023 29.8416 50.0011L43.1763 49.7266C44.2372 49.7048 45.2553 49.2623 46.0065 48.4965C46.7576 47.7306 47.1804 46.7042 47.1817 45.643L47.1952 34.973C47.1966 33.9118 46.7764 32.9028 46.0271 32.1678C45.2779 31.4329 44.2609 31.0323 43.1999 31.0541ZM33.8688 28.7255C33.8518 27.9994 34.1232 27.2898 34.6237 26.752C35.1242 26.2143 35.813 25.8923 36.5393 25.8564C37.2655 25.8624 37.9535 26.1561 38.4527 26.6732C38.9519 27.1904 39.2215 27.8888 39.2027 28.6157L39.1995 31.1365L33.8656 31.2463L33.8688 28.7255ZM36.5157 44.5289C35.7245 44.5452 34.9513 44.3264 34.294 43.9003C33.6367 43.4742 33.1248 42.8598 32.8229 42.1349C32.5211 41.41 32.4429 40.6071 32.5982 39.8278C32.7535 39.0484 33.1354 38.3276 33.6956 37.7565C34.2558 37.1854 34.9691 36.7897 35.7453 36.6193C36.5215 36.449 37.3257 36.5116 38.0563 36.7994C38.7869 37.0872 39.411 37.5872 39.8498 38.2362C40.2885 38.8851 40.5221 39.6539 40.5211 40.4453C40.5198 41.5065 40.097 42.5329 39.3459 43.2987C38.5947 44.0645 37.5766 44.507 36.5157 44.5289Z" fill="#3865F3"/>
</svg>
