<svg width="565" height="620" viewBox="0 0 565 620" fill="none" xmlns="http://www.w3.org/2000/svg">
<rect x="389" y="516" width="8" height="8" rx="4" fill="#3865F3" fill-opacity="0.15"/>
<rect x="389" y="444" width="8" height="8" rx="4" fill="#3865F3" fill-opacity="0.15"/>
<rect x="413" y="516" width="8" height="8" rx="4" fill="#3865F3" fill-opacity="0.15"/>
<rect x="413" y="444" width="8" height="8" rx="4" fill="#3865F3" fill-opacity="0.15"/>
<rect x="437" y="516" width="8" height="8" rx="4" fill="#3865F3" fill-opacity="0.15"/>
<rect x="437" y="444" width="8" height="8" rx="4" fill="#3865F3" fill-opacity="0.15"/>
<rect x="461" y="516" width="8" height="8" rx="4" fill="#3865F3" fill-opacity="0.15"/>
<rect x="461" y="444" width="8" height="8" rx="4" fill="#3865F3" fill-opacity="0.15"/>
<rect x="485" y="516" width="8" height="8" rx="4" fill="#3865F3" fill-opacity="0.15"/>
<rect x="485" y="444" width="8" height="8" rx="4" fill="#3865F3" fill-opacity="0.15"/>
<rect x="509" y="516" width="8" height="8" rx="4" fill="#3865F3" fill-opacity="0.15"/>
<rect x="509" y="444" width="8" height="8" rx="4" fill="#3865F3" fill-opacity="0.15"/>
<rect x="533" y="516" width="8" height="8" rx="4" fill="#3865F3" fill-opacity="0.15"/>
<rect x="533" y="444" width="8" height="8" rx="4" fill="#3865F3" fill-opacity="0.15"/>
<rect x="557" y="516" width="8" height="8" rx="4" fill="#3865F3" fill-opacity="0.15"/>
<rect x="557" y="444" width="8" height="8" rx="4" fill="#3865F3" fill-opacity="0.15"/>
<rect x="389" y="540" width="8" height="8" rx="4" fill="#3865F3" fill-opacity="0.15"/>
<rect x="389" y="468" width="8" height="8" rx="4" fill="#3865F3" fill-opacity="0.15"/>
<rect x="413" y="540" width="8" height="8" rx="4" fill="#3865F3" fill-opacity="0.15"/>
<rect x="413" y="468" width="8" height="8" rx="4" fill="#3865F3" fill-opacity="0.15"/>
<rect x="437" y="540" width="8" height="8" rx="4" fill="#3865F3" fill-opacity="0.15"/>
<rect x="437" y="468" width="8" height="8" rx="4" fill="#3865F3" fill-opacity="0.15"/>
<rect x="461" y="540" width="8" height="8" rx="4" fill="#3865F3" fill-opacity="0.15"/>
<rect x="461" y="468" width="8" height="8" rx="4" fill="#3865F3" fill-opacity="0.15"/>
<rect x="485" y="540" width="8" height="8" rx="4" fill="#3865F3" fill-opacity="0.15"/>
<rect x="485" y="468" width="8" height="8" rx="4" fill="#3865F3" fill-opacity="0.15"/>
<rect x="509" y="540" width="8" height="8" rx="4" fill="#3865F3" fill-opacity="0.15"/>
<rect x="509" y="468" width="8" height="8" rx="4" fill="#3865F3" fill-opacity="0.15"/>
<rect x="533" y="540" width="8" height="8" rx="4" fill="#3865F3" fill-opacity="0.15"/>
<rect x="533" y="468" width="8" height="8" rx="4" fill="#3865F3" fill-opacity="0.15"/>
<rect x="557" y="540" width="8" height="8" rx="4" fill="#3865F3" fill-opacity="0.15"/>
<rect x="557" y="468" width="8" height="8" rx="4" fill="#3865F3" fill-opacity="0.15"/>
<rect x="389" y="564" width="8" height="8" rx="4" fill="#3865F3" fill-opacity="0.15"/>
<rect x="389" y="492" width="8" height="8" rx="4" fill="#3865F3" fill-opacity="0.15"/>
<rect x="413" y="564" width="8" height="8" rx="4" fill="#3865F3" fill-opacity="0.15"/>
<rect x="413" y="492" width="8" height="8" rx="4" fill="#3865F3" fill-opacity="0.15"/>
<rect x="437" y="564" width="8" height="8" rx="4" fill="#3865F3" fill-opacity="0.15"/>
<rect x="437" y="492" width="8" height="8" rx="4" fill="#3865F3" fill-opacity="0.15"/>
<rect x="461" y="564" width="8" height="8" rx="4" fill="#3865F3" fill-opacity="0.15"/>
<rect x="461" y="492" width="8" height="8" rx="4" fill="#3865F3" fill-opacity="0.15"/>
<rect x="485" y="564" width="8" height="8" rx="4" fill="#3865F3" fill-opacity="0.15"/>
<rect x="485" y="492" width="8" height="8" rx="4" fill="#3865F3" fill-opacity="0.15"/>
<rect x="509" y="564" width="8" height="8" rx="4" fill="#3865F3" fill-opacity="0.15"/>
<rect x="509" y="492" width="8" height="8" rx="4" fill="#3865F3" fill-opacity="0.15"/>
<rect x="533" y="564" width="8" height="8" rx="4" fill="#3865F3" fill-opacity="0.15"/>
<rect x="533" y="492" width="8" height="8" rx="4" fill="#3865F3" fill-opacity="0.15"/>
<rect x="557" y="564" width="8" height="8" rx="4" fill="#3865F3" fill-opacity="0.15"/>
<rect x="557" y="492" width="8" height="8" rx="4" fill="#3865F3" fill-opacity="0.15"/>
<rect x="389" y="588" width="8" height="8" rx="4" fill="#3865F3" fill-opacity="0.15"/>
<rect x="413" y="588" width="8" height="8" rx="4" fill="#3865F3" fill-opacity="0.15"/>
<rect x="437" y="588" width="8" height="8" rx="4" fill="#3865F3" fill-opacity="0.15"/>
<rect x="461" y="588" width="8" height="8" rx="4" fill="#3865F3" fill-opacity="0.15"/>
<rect x="485" y="588" width="8" height="8" rx="4" fill="#3865F3" fill-opacity="0.15"/>
<rect x="509" y="588" width="8" height="8" rx="4" fill="#3865F3" fill-opacity="0.15"/>
<rect x="533" y="588" width="8" height="8" rx="4" fill="#3865F3" fill-opacity="0.15"/>
<rect x="557" y="588" width="8" height="8" rx="4" fill="#3865F3" fill-opacity="0.15"/>
<rect x="389" y="612" width="8" height="8" rx="4" fill="#3865F3" fill-opacity="0.15"/>
<rect x="413" y="612" width="8" height="8" rx="4" fill="#3865F3" fill-opacity="0.15"/>
<rect x="437" y="612" width="8" height="8" rx="4" fill="#3865F3" fill-opacity="0.15"/>
<rect x="461" y="612" width="8" height="8" rx="4" fill="#3865F3" fill-opacity="0.15"/>
<rect x="485" y="612" width="8" height="8" rx="4" fill="#3865F3" fill-opacity="0.15"/>
<rect x="509" y="612" width="8" height="8" rx="4" fill="#3865F3" fill-opacity="0.15"/>
<rect x="533" y="612" width="8" height="8" rx="4" fill="#3865F3" fill-opacity="0.15"/>
<rect x="557" y="612" width="8" height="8" rx="4" fill="#3865F3" fill-opacity="0.15"/>
<path d="M36.9998 90.4658V90.4658C61.8006 75.9987 92.4682 75.9987 117.269 90.4658V90.4658V90.4658C142.07 104.933 172.737 104.933 197.538 90.4658V90.4658" stroke="#FFC042" stroke-width="4" stroke-linecap="round" stroke-linejoin="round"/>
<path d="M36.9998 82.4388V82.4388C61.8006 67.9717 92.4682 67.9717 117.269 82.4388V82.4388V82.4388C142.07 96.906 172.737 96.906 197.538 82.4388V82.4388" stroke="#FFC042" stroke-width="4" stroke-linecap="round" stroke-linejoin="round"/>
<path d="M36.9998 74.4119V74.4119C61.8006 59.9447 92.4682 59.9447 117.269 74.4119V74.4119V74.4119C142.07 88.879 172.737 88.879 197.538 74.4119V74.4119" stroke="#FFC042" stroke-width="4" stroke-linecap="round" stroke-linejoin="round"/>
<path d="M36.9998 98.4925V98.4925C61.8006 84.0254 92.4682 84.0254 117.269 98.4925V98.4925V98.4925C142.07 112.96 172.737 112.96 197.538 98.4925V98.4925" stroke="#FFC042" stroke-width="4" stroke-linecap="round" stroke-linejoin="round"/>
<path d="M36.9998 106.52V106.52C61.8006 92.0524 92.4682 92.0524 117.269 106.52V106.52V106.52C142.07 120.987 172.737 120.987 197.538 106.52V106.52" stroke="#FFC042" stroke-width="4" stroke-linecap="round" stroke-linejoin="round"/>
<path d="M36.9998 114.547V114.547C61.8006 100.079 92.4682 100.079 117.269 114.547V114.547V114.547C142.07 129.014 172.737 129.014 197.538 114.547V114.547" stroke="#FFC042" stroke-width="4" stroke-linecap="round" stroke-linejoin="round"/>
<circle cx="544.208" cy="20.2083" r="16.5" transform="rotate(105 544.208 20.2083)" fill="#FFC042"/>
<circle cx="36.7423" cy="486.742" r="30" transform="rotate(105 36.7423 486.742)" fill="#3865F3"/>
</svg>
