<svg width="635" height="676" viewBox="0 0 635 676" fill="none" xmlns="http://www.w3.org/2000/svg">
<rect x="406" y="72" width="8" height="8" rx="4" fill="#3865F3" fill-opacity="0.15"/>
<rect x="406" width="8" height="8" rx="4" fill="#3865F3" fill-opacity="0.15"/>
<rect x="430" y="72" width="8" height="8" rx="4" fill="#3865F3" fill-opacity="0.15"/>
<rect x="430" width="8" height="8" rx="4" fill="#3865F3" fill-opacity="0.15"/>
<rect x="454" y="72" width="8" height="8" rx="4" fill="#3865F3" fill-opacity="0.15"/>
<rect x="454" width="8" height="8" rx="4" fill="#3865F3" fill-opacity="0.15"/>
<rect x="478" y="72" width="8" height="8" rx="4" fill="#3865F3" fill-opacity="0.15"/>
<rect x="478" width="8" height="8" rx="4" fill="#3865F3" fill-opacity="0.15"/>
<rect x="502" y="72" width="8" height="8" rx="4" fill="#3865F3" fill-opacity="0.15"/>
<rect x="502" width="8" height="8" rx="4" fill="#3865F3" fill-opacity="0.15"/>
<rect x="526" y="72" width="8" height="8" rx="4" fill="#3865F3" fill-opacity="0.15"/>
<rect x="526" width="8" height="8" rx="4" fill="#3865F3" fill-opacity="0.15"/>
<rect x="550" y="72" width="8" height="8" rx="4" fill="#3865F3" fill-opacity="0.15"/>
<rect x="550" width="8" height="8" rx="4" fill="#3865F3" fill-opacity="0.15"/>
<rect x="574" y="72" width="8" height="8" rx="4" fill="#3865F3" fill-opacity="0.15"/>
<rect x="574" width="8" height="8" rx="4" fill="#3865F3" fill-opacity="0.15"/>
<rect x="406" y="96" width="8" height="8" rx="4" fill="#3865F3" fill-opacity="0.15"/>
<rect x="406" y="24" width="8" height="8" rx="4" fill="#3865F3" fill-opacity="0.15"/>
<rect x="430" y="96" width="8" height="8" rx="4" fill="#3865F3" fill-opacity="0.15"/>
<rect x="430" y="24" width="8" height="8" rx="4" fill="#3865F3" fill-opacity="0.15"/>
<rect x="454" y="96" width="8" height="8" rx="4" fill="#3865F3" fill-opacity="0.15"/>
<rect x="454" y="24" width="8" height="8" rx="4" fill="#3865F3" fill-opacity="0.15"/>
<rect x="478" y="96" width="8" height="8" rx="4" fill="#3865F3" fill-opacity="0.15"/>
<rect x="478" y="24" width="8" height="8" rx="4" fill="#3865F3" fill-opacity="0.15"/>
<rect x="502" y="96" width="8" height="8" rx="4" fill="#3865F3" fill-opacity="0.15"/>
<rect x="502" y="24" width="8" height="8" rx="4" fill="#3865F3" fill-opacity="0.15"/>
<rect x="526" y="96" width="8" height="8" rx="4" fill="#3865F3" fill-opacity="0.15"/>
<rect x="526" y="24" width="8" height="8" rx="4" fill="#3865F3" fill-opacity="0.15"/>
<rect x="550" y="96" width="8" height="8" rx="4" fill="#3865F3" fill-opacity="0.15"/>
<rect x="550" y="24" width="8" height="8" rx="4" fill="#3865F3" fill-opacity="0.15"/>
<rect x="574" y="96" width="8" height="8" rx="4" fill="#3865F3" fill-opacity="0.15"/>
<rect x="574" y="24" width="8" height="8" rx="4" fill="#3865F3" fill-opacity="0.15"/>
<rect x="406" y="120" width="8" height="8" rx="4" fill="#3865F3" fill-opacity="0.15"/>
<rect x="406" y="48" width="8" height="8" rx="4" fill="#3865F3" fill-opacity="0.15"/>
<rect x="430" y="120" width="8" height="8" rx="4" fill="#3865F3" fill-opacity="0.15"/>
<rect x="430" y="48" width="8" height="8" rx="4" fill="#3865F3" fill-opacity="0.15"/>
<rect x="454" y="120" width="8" height="8" rx="4" fill="#3865F3" fill-opacity="0.15"/>
<rect x="454" y="48" width="8" height="8" rx="4" fill="#3865F3" fill-opacity="0.15"/>
<rect x="478" y="120" width="8" height="8" rx="4" fill="#3865F3" fill-opacity="0.15"/>
<rect x="478" y="48" width="8" height="8" rx="4" fill="#3865F3" fill-opacity="0.15"/>
<rect x="502" y="120" width="8" height="8" rx="4" fill="#3865F3" fill-opacity="0.15"/>
<rect x="502" y="48" width="8" height="8" rx="4" fill="#3865F3" fill-opacity="0.15"/>
<rect x="526" y="120" width="8" height="8" rx="4" fill="#3865F3" fill-opacity="0.15"/>
<rect x="526" y="48" width="8" height="8" rx="4" fill="#3865F3" fill-opacity="0.15"/>
<rect x="550" y="120" width="8" height="8" rx="4" fill="#3865F3" fill-opacity="0.15"/>
<rect x="550" y="48" width="8" height="8" rx="4" fill="#3865F3" fill-opacity="0.15"/>
<rect x="574" y="120" width="8" height="8" rx="4" fill="#3865F3" fill-opacity="0.15"/>
<rect x="574" y="48" width="8" height="8" rx="4" fill="#3865F3" fill-opacity="0.15"/>
<rect x="406" y="144" width="8" height="8" rx="4" fill="#3865F3" fill-opacity="0.15"/>
<rect x="430" y="144" width="8" height="8" rx="4" fill="#3865F3" fill-opacity="0.15"/>
<rect x="454" y="144" width="8" height="8" rx="4" fill="#3865F3" fill-opacity="0.15"/>
<rect x="478" y="144" width="8" height="8" rx="4" fill="#3865F3" fill-opacity="0.15"/>
<rect x="502" y="144" width="8" height="8" rx="4" fill="#3865F3" fill-opacity="0.15"/>
<rect x="526" y="144" width="8" height="8" rx="4" fill="#3865F3" fill-opacity="0.15"/>
<rect x="550" y="144" width="8" height="8" rx="4" fill="#3865F3" fill-opacity="0.15"/>
<rect x="574" y="144" width="8" height="8" rx="4" fill="#3865F3" fill-opacity="0.15"/>
<rect x="406" y="168" width="8" height="8" rx="4" fill="#3865F3" fill-opacity="0.15"/>
<rect x="430" y="168" width="8" height="8" rx="4" fill="#3865F3" fill-opacity="0.15"/>
<rect x="454" y="168" width="8" height="8" rx="4" fill="#3865F3" fill-opacity="0.15"/>
<rect x="478" y="168" width="8" height="8" rx="4" fill="#3865F3" fill-opacity="0.15"/>
<rect x="502" y="168" width="8" height="8" rx="4" fill="#3865F3" fill-opacity="0.15"/>
<rect x="526" y="168" width="8" height="8" rx="4" fill="#3865F3" fill-opacity="0.15"/>
<rect x="550" y="168" width="8" height="8" rx="4" fill="#3865F3" fill-opacity="0.15"/>
<rect x="574" y="168" width="8" height="8" rx="4" fill="#3865F3" fill-opacity="0.15"/>
<path d="M28.0001 474C3.00004 480 -18.3471 518.917 36.7228 515.016C105.56 510.141 98.1685 472.836 80.768 467.709C57.0002 460.707 16.2825 503.205 16.2824 534.387C16.2824 578.5 68.8618 572.421 103.5 557.706" stroke="#FFC042" stroke-width="4"/>
<circle cx="78.5" cy="184.5" r="16.5" fill="#FFC042"/>
<circle cx="567" cy="646" r="30" fill="#3865F3"/>
<rect x="575.964" y="231.855" width="68" height="68" rx="34" transform="rotate(30 575.964 231.855)" fill="#FF4F60"/>
</svg>
