<svg width="567" height="595" viewBox="0 0 567 595" fill="none" xmlns="http://www.w3.org/2000/svg">
<rect x="391" y="491" width="8" height="8" rx="4" fill="#3865F3" fill-opacity="0.15"/>
<rect x="391" y="419" width="8" height="8" rx="4" fill="#3865F3" fill-opacity="0.15"/>
<rect x="415" y="491" width="8" height="8" rx="4" fill="#3865F3" fill-opacity="0.15"/>
<rect x="415" y="419" width="8" height="8" rx="4" fill="#3865F3" fill-opacity="0.15"/>
<rect x="439" y="491" width="8" height="8" rx="4" fill="#3865F3" fill-opacity="0.15"/>
<rect x="439" y="419" width="8" height="8" rx="4" fill="#3865F3" fill-opacity="0.15"/>
<rect x="463" y="491" width="8" height="8" rx="4" fill="#3865F3" fill-opacity="0.15"/>
<rect x="463" y="419" width="8" height="8" rx="4" fill="#3865F3" fill-opacity="0.15"/>
<rect x="487" y="491" width="8" height="8" rx="4" fill="#3865F3" fill-opacity="0.15"/>
<rect x="487" y="419" width="8" height="8" rx="4" fill="#3865F3" fill-opacity="0.15"/>
<rect x="511" y="491" width="8" height="8" rx="4" fill="#3865F3" fill-opacity="0.15"/>
<rect x="511" y="419" width="8" height="8" rx="4" fill="#3865F3" fill-opacity="0.15"/>
<rect x="535" y="491" width="8" height="8" rx="4" fill="#3865F3" fill-opacity="0.15"/>
<rect x="535" y="419" width="8" height="8" rx="4" fill="#3865F3" fill-opacity="0.15"/>
<rect x="559" y="491" width="8" height="8" rx="4" fill="#3865F3" fill-opacity="0.15"/>
<rect x="559" y="419" width="8" height="8" rx="4" fill="#3865F3" fill-opacity="0.15"/>
<rect x="391" y="515" width="8" height="8" rx="4" fill="#3865F3" fill-opacity="0.15"/>
<rect x="391" y="443" width="8" height="8" rx="4" fill="#3865F3" fill-opacity="0.15"/>
<rect x="415" y="515" width="8" height="8" rx="4" fill="#3865F3" fill-opacity="0.15"/>
<rect x="415" y="443" width="8" height="8" rx="4" fill="#3865F3" fill-opacity="0.15"/>
<rect x="439" y="515" width="8" height="8" rx="4" fill="#3865F3" fill-opacity="0.15"/>
<rect x="439" y="443" width="8" height="8" rx="4" fill="#3865F3" fill-opacity="0.15"/>
<rect x="463" y="515" width="8" height="8" rx="4" fill="#3865F3" fill-opacity="0.15"/>
<rect x="463" y="443" width="8" height="8" rx="4" fill="#3865F3" fill-opacity="0.15"/>
<rect x="487" y="515" width="8" height="8" rx="4" fill="#3865F3" fill-opacity="0.15"/>
<rect x="487" y="443" width="8" height="8" rx="4" fill="#3865F3" fill-opacity="0.15"/>
<rect x="511" y="515" width="8" height="8" rx="4" fill="#3865F3" fill-opacity="0.15"/>
<rect x="511" y="443" width="8" height="8" rx="4" fill="#3865F3" fill-opacity="0.15"/>
<rect x="535" y="515" width="8" height="8" rx="4" fill="#3865F3" fill-opacity="0.15"/>
<rect x="535" y="443" width="8" height="8" rx="4" fill="#3865F3" fill-opacity="0.15"/>
<rect x="559" y="515" width="8" height="8" rx="4" fill="#3865F3" fill-opacity="0.15"/>
<rect x="559" y="443" width="8" height="8" rx="4" fill="#3865F3" fill-opacity="0.15"/>
<rect x="391" y="539" width="8" height="8" rx="4" fill="#3865F3" fill-opacity="0.15"/>
<rect x="391" y="467" width="8" height="8" rx="4" fill="#3865F3" fill-opacity="0.15"/>
<rect x="415" y="539" width="8" height="8" rx="4" fill="#3865F3" fill-opacity="0.15"/>
<rect x="415" y="467" width="8" height="8" rx="4" fill="#3865F3" fill-opacity="0.15"/>
<rect x="439" y="539" width="8" height="8" rx="4" fill="#3865F3" fill-opacity="0.15"/>
<rect x="439" y="467" width="8" height="8" rx="4" fill="#3865F3" fill-opacity="0.15"/>
<rect x="463" y="539" width="8" height="8" rx="4" fill="#3865F3" fill-opacity="0.15"/>
<rect x="463" y="467" width="8" height="8" rx="4" fill="#3865F3" fill-opacity="0.15"/>
<rect x="487" y="539" width="8" height="8" rx="4" fill="#3865F3" fill-opacity="0.15"/>
<rect x="487" y="467" width="8" height="8" rx="4" fill="#3865F3" fill-opacity="0.15"/>
<rect x="511" y="539" width="8" height="8" rx="4" fill="#3865F3" fill-opacity="0.15"/>
<rect x="511" y="467" width="8" height="8" rx="4" fill="#3865F3" fill-opacity="0.15"/>
<rect x="535" y="539" width="8" height="8" rx="4" fill="#3865F3" fill-opacity="0.15"/>
<rect x="535" y="467" width="8" height="8" rx="4" fill="#3865F3" fill-opacity="0.15"/>
<rect x="559" y="539" width="8" height="8" rx="4" fill="#3865F3" fill-opacity="0.15"/>
<rect x="559" y="467" width="8" height="8" rx="4" fill="#3865F3" fill-opacity="0.15"/>
<rect x="391" y="563" width="8" height="8" rx="4" fill="#3865F3" fill-opacity="0.15"/>
<rect x="415" y="563" width="8" height="8" rx="4" fill="#3865F3" fill-opacity="0.15"/>
<rect x="439" y="563" width="8" height="8" rx="4" fill="#3865F3" fill-opacity="0.15"/>
<rect x="463" y="563" width="8" height="8" rx="4" fill="#3865F3" fill-opacity="0.15"/>
<rect x="487" y="563" width="8" height="8" rx="4" fill="#3865F3" fill-opacity="0.15"/>
<rect x="511" y="563" width="8" height="8" rx="4" fill="#3865F3" fill-opacity="0.15"/>
<rect x="535" y="563" width="8" height="8" rx="4" fill="#3865F3" fill-opacity="0.15"/>
<rect x="559" y="563" width="8" height="8" rx="4" fill="#3865F3" fill-opacity="0.15"/>
<rect x="391" y="587" width="8" height="8" rx="4" fill="#3865F3" fill-opacity="0.15"/>
<rect x="415" y="587" width="8" height="8" rx="4" fill="#3865F3" fill-opacity="0.15"/>
<rect x="439" y="587" width="8" height="8" rx="4" fill="#3865F3" fill-opacity="0.15"/>
<rect x="463" y="587" width="8" height="8" rx="4" fill="#3865F3" fill-opacity="0.15"/>
<rect x="487" y="587" width="8" height="8" rx="4" fill="#3865F3" fill-opacity="0.15"/>
<rect x="511" y="587" width="8" height="8" rx="4" fill="#3865F3" fill-opacity="0.15"/>
<rect x="535" y="587" width="8" height="8" rx="4" fill="#3865F3" fill-opacity="0.15"/>
<rect x="559" y="587" width="8" height="8" rx="4" fill="#3865F3" fill-opacity="0.15"/>
<circle cx="544.209" cy="200.206" r="16.5" transform="rotate(105 544.209 200.206)" fill="#FFC042"/>
<circle cx="36.7425" cy="477.744" r="30" transform="rotate(105 36.7425 477.744)" fill="#3865F3"/>
<path d="M73 39.4657V39.4657C97.8008 24.9986 128.468 24.9986 153.269 39.4657V39.4657V39.4657C178.07 53.9329 208.738 53.9329 233.538 39.4657V39.4657" stroke="#FFC042" stroke-width="4" stroke-linecap="round" stroke-linejoin="round"/>
<path d="M73 31.4388V31.4388C97.8008 16.9716 128.468 16.9716 153.269 31.4388V31.4388V31.4388C178.07 45.9059 208.738 45.9059 233.538 31.4388V31.4388" stroke="#FFC042" stroke-width="4" stroke-linecap="round" stroke-linejoin="round"/>
<path d="M73 23.4118V23.4118C97.8008 8.94468 128.468 8.94468 153.269 23.4118V23.4118V23.4118C178.07 37.879 208.738 37.879 233.538 23.4118V23.4118" stroke="#FFC042" stroke-width="4" stroke-linecap="round" stroke-linejoin="round"/>
<path d="M73 47.4939V47.4939C97.8008 33.0267 128.468 33.0267 153.269 47.4939V47.4939V47.4939C178.07 61.961 208.738 61.961 233.538 47.4939V47.4939" stroke="#FFC042" stroke-width="4" stroke-linecap="round" stroke-linejoin="round"/>
<path d="M73 55.5212V55.5212C97.8008 41.0541 128.468 41.0541 153.269 55.5212V55.5212V55.5212C178.07 69.9884 208.738 69.9884 233.538 55.5212V55.5212" stroke="#FFC042" stroke-width="4" stroke-linecap="round" stroke-linejoin="round"/>
<path d="M73 63.5446V63.5446C97.8008 49.0775 128.468 49.0775 153.269 63.5446V63.5446V63.5446C178.07 78.0118 208.738 78.0118 233.538 63.5446V63.5446" stroke="#FFC042" stroke-width="4" stroke-linecap="round" stroke-linejoin="round"/>
</svg>
